<?xml version="1.0" encoding="utf-8"?>
<!-- Generator: Adobe Illustrator 16.0.0, SVG Export Plug-In . SVG Version: 6.00 Build 0)  -->
<!DOCTYPE svg PUBLIC "-//W3C//DTD SVG 1.1//EN" "http://www.w3.org/Graphics/SVG/1.1/DTD/svg11.dtd">
<svg version="1.1" id="Layer_1" xmlns="http://www.w3.org/2000/svg" xmlns:xlink="http://www.w3.org/1999/xlink" x="0px" y="0px"
	 width="70px" height="70px" viewBox="0 0 70 70" enable-background="new 0 0 70 70" xml:space="preserve">
<g>
	<defs>
		<filter id="Adobe_OpacityMaskFilter" filterUnits="userSpaceOnUse" x="0" y="0" width="70" height="70">
			<feColorMatrix  type="matrix" values="1 0 0 0 0  0 1 0 0 0  0 0 1 0 0  0 0 0 1 0"/>
		</filter>
	</defs>
	<mask maskUnits="userSpaceOnUse" x="0" y="0" width="70" height="70" id="icon-b">
		<g filter="url(#Adobe_OpacityMaskFilter)">
			<path id="icon-a" fill="#FFFFFF" d="M4,0h61c4,0,5,1,5,5v60c0,4-1,5-5,5H4c-3,0-4-1-4-5V5C0,1,1,0,4,0z"/>
		</g>
	</mask>
	<g mask="url(#icon-b)">
		<path fill="#C300E5" d="M0,0h70v70H0V0z"/>
		<path fill="#FFFFFF" fill-opacity="0.383" d="M4,1h61c2.667,0,4.333,0.667,5,2V0H0v3C0.667,1.667,2,1,4,1z"/>
		<path opacity="0.165" enable-background="new    " d="M26.375,11.5l9.25,1.125L54,18.25l4,6.11v19.558L33.423,69H4.006
			C2.003,69,0,68.854,0,64.911V38.064l12.348-14L26.375,11.5z"/>
		<path fill-opacity="0.383" d="M4,69h61c2.667,0,4.333-1,5-3v4H0v-4C0.667,68,2,69,4,69z"/>
		<g display="none">
			<g id="Layer_1_1_" display="inline">
				<path fill="#FFFFFF" d="M35,8.281C20.246,8.281,8.281,20.246,8.281,35S20.246,61.719,35,61.719S61.719,49.754,61.719,35
					S49.754,8.281,35,8.281z M35,19.297c4.301,0,7.793,3.492,7.793,7.793c0,4.301-3.492,7.793-7.793,7.793s-7.793-3.492-7.793-7.793
					C27.207,22.789,30.699,19.297,35,19.297z M47.598,46.156c0,2.496-2.039,4.535-4.535,4.535H26.938
					c-2.496,0-4.535-2.039-4.535-4.535v-9.609c0-2.496,2.039-4.535,4.535-4.535h0.375c1.582,2.578,4.43,4.3,7.676,4.3
					s6.094-1.728,7.676-4.3h0.375c2.496,0,4.535,2.039,4.535,4.535v9.609H47.598z"/>
			</g>
			<g id="Layer_2" display="inline">
				<g>
					<path fill="#FFFFFF" d="M47.984,8.398H15.289c-3.223,0-5.859,2.637-5.859,5.859v41.484c0,3.223,2.637,5.858,5.859,5.858h32.695
						c3.223,0,5.854-2.642,5.854-5.858V14.258C53.844,11.035,51.207,8.398,47.984,8.398z M31.637,19.297
						c4.3,0,7.792,3.492,7.792,7.793c0,4.301-3.492,7.793-7.792,7.793c-4.301,0-7.793-3.492-7.793-7.793
						C23.844,22.789,27.324,19.297,31.637,19.297z M44.234,46.156c0,2.496-2.039,4.535-4.535,4.535H23.574
						c-2.496,0-4.535-2.039-4.535-4.535v-9.609c0-2.496,2.039-4.535,4.535-4.535h0.375c1.582,2.578,4.43,4.3,7.676,4.3
						s6.094-1.728,7.676-4.3h0.375c2.496,0,4.535,2.039,4.535,4.535v9.609H44.234z"/>
					<g>
						<g>
							<g>
								<g>
									<rect id="SVGID_2_" x="53.375" y="18.242" fill="#FFFFFF" width="7.207" height="32.227"/>
								</g>
								<g>
									<g>
										<g>
											<g>
												<g>
													<defs>
														<rect id="SVGID_1_" x="53.375" y="18.242" width="7.207" height="32.227"/>
													</defs>
													<clipPath id="SVGID_3_">
														<use xlink:href="#SVGID_1_"  overflow="visible"/>
													</clipPath>
													<g clip-path="url(#SVGID_3_)">
														<path fill="#FFFFFF" d="M59.41,19.063h-8.438c-0.646,0-1.178,0.527-1.178,1.172v5.391
															c0,0.645,0.527,1.172,1.178,1.172h8.438c0.645,0,1.172-0.527,1.172-1.172v-5.391
															C60.582,19.59,60.055,19.063,59.41,19.063z"/>
														<path fill="#FFFFFF" d="M56.188,42.266H47.75c-0.645,0-1.172,0.527-1.172,1.172v5.396
															c0,0.646,0.527,1.172,1.172,1.172h8.438c0.646,0,1.172-0.521,1.172-1.172v-5.396
															C57.359,42.793,56.832,42.266,56.188,42.266z"/>
														<path fill="#FFFFFF" d="M58.18,30.664h-8.438c-0.645,0-1.172,0.527-1.172,1.172v5.391
															c0,0.646,0.527,1.172,1.172,1.172h8.438c0.646,0,1.172-0.521,1.172-1.172v-5.391
															C59.352,31.191,58.824,30.664,58.18,30.664z"/>
													</g>
												</g>
											</g>
										</g>
									</g>
								</g>
							</g>
						</g>
					</g>
				</g>
			</g>
			<g id="Layer_3" display="inline">
				<g>
					<path fill="#FFFFFF" d="M60.664,17.539h-2.402c-0.375,2.578-2.59,4.57-5.273,4.57c-2.682,0-4.904-1.992-5.271-4.57h-25.43
						c-0.375,2.578-2.59,4.57-5.273,4.57s-4.91-1.992-5.273-4.57H9.336c-0.645,0-1.172,0.527-1.172,1.172v37.734
						c0,0.645,0.527,1.172,1.172,1.172h51.328c0.645,0,1.172-0.527,1.172-1.172V18.711C61.836,18.066,61.309,17.539,60.664,17.539z
						 M23.281,25.508c3.305,0,5.988,2.684,5.988,5.988c0,3.304-2.684,5.988-5.988,5.988c-3.304,0-5.988-2.688-5.988-5.988
						C17.293,28.192,19.977,25.508,23.281,25.508z M32.961,46.156c0,1.922-1.57,3.492-3.492,3.492H17.082
						c-1.922,0-3.492-1.57-3.492-3.492v-7.383c0-1.922,1.57-3.492,3.492-3.492h0.293c1.219,1.979,3.398,3.305,5.906,3.305
						c2.508,0,4.688-1.324,5.906-3.305h0.293c1.922,0,3.492,1.57,3.492,3.492v7.383H32.961z M56.328,45.781
						c0,0.645-0.527,1.172-1.172,1.172H36.992c-0.645,0-1.172-0.527-1.172-1.172v-0.82c0-0.645,0.527-1.172,1.172-1.172h18.164
						c0.645,0,1.172,0.527,1.172,1.172V45.781z M56.328,38.164c0,0.645-0.527,1.172-1.172,1.172H36.992
						c-0.645,0-1.172-0.527-1.172-1.172v-0.82c0-0.645,0.527-1.172,1.172-1.172h18.164c0.645,0,1.172,0.527,1.172,1.172V38.164z
						 M56.328,30.547c0,0.645-0.527,1.172-1.172,1.172H36.992c-0.645,0-1.172-0.527-1.172-1.172v-0.82
						c0-0.645,0.527-1.172,1.172-1.172h18.164c0.645,0,1.172,0.527,1.172,1.172V30.547z"/>
					<path fill="#FFFFFF" d="M17.012,12.383c-2.367,0-4.277,1.91-4.277,4.277c0,2.367,1.91,4.277,4.277,4.277
						c2.367,0,4.277-1.91,4.277-4.277C21.289,14.293,19.379,12.383,17.012,12.383z M17.012,19.414c-1.523,0-2.754-1.23-2.754-2.754
						c0-1.524,1.23-2.754,2.754-2.754c1.524,0,2.754,1.229,2.754,2.754C19.766,18.184,18.535,19.414,17.012,19.414z"/>
					<path fill="#FFFFFF" d="M53.105,12.383c-2.367,0-4.277,1.91-4.277,4.277c0,2.367,1.91,4.277,4.277,4.277
						s4.271-1.91,4.271-4.277C57.382,14.293,55.473,12.383,53.105,12.383z M53.105,19.414c-1.523,0-2.754-1.23-2.754-2.754
						c0-1.524,1.229-2.754,2.754-2.754c1.521,0,2.754,1.229,2.754,2.754C55.859,18.184,54.629,19.414,53.105,19.414z"/>
				</g>
			</g>
			<g id="Layer_4" display="inline">
				<g>
					<path fill="#FFFFFF" d="M46.883,26.41h-7.5c-0.48,0-0.879,0.398-0.879,0.879l0,0c0,0.48,0.398,0.879,0.879,0.879h7.5
						c0.48,0,0.879-0.398,0.879-0.879l0,0C47.762,26.797,47.363,26.41,46.883,26.41z"/>
					<path fill="#FFFFFF" d="M46.883,23.199h-7.5c-0.48,0-0.879,0.398-0.879,0.879s0.398,0.879,0.879,0.879h7.5
						c0.48,0,0.879-0.398,0.879-0.879S47.363,23.199,46.883,23.199z"/>
					<path fill="#FFFFFF" d="M35,8.281C20.246,8.281,8.281,20.246,8.281,35S20.246,61.719,35,61.719S61.719,49.754,61.719,35
						S49.754,8.281,35,8.281z M28.086,27.734c3.34,0,6.047,2.707,6.047,6.047c0,3.34-2.707,6.047-6.047,6.047
						s-6.047-2.707-6.047-6.047C22.039,30.441,24.746,27.734,28.086,27.734z M37.871,48.582c0,1.934-1.582,3.527-3.527,3.527H21.828
						c-1.934,0-3.527-1.582-3.527-3.527v-7.465c0-1.934,1.582-3.527,3.527-3.527h0.293c1.23,2.004,3.434,3.34,5.965,3.34
						c2.531,0,4.734-1.336,5.965-3.34h0.293c1.934,0,3.527,1.582,3.527,3.527V48.582z M52.508,26.527c0,2.098-1.488,3.82-3.305,3.82
						h-7.277l-7.02,2.777l2.098-2.789h0.047c-1.816,0-3.305-1.723-3.305-3.82v-4.84c0-2.098,1.488-3.82,3.305-3.82h12.152
						c1.816,0,3.305,1.723,3.305,3.82V26.527z"/>
					<path fill="#FFFFFF" d="M46.883,20h-7.5c-0.48,0-0.879,0.398-0.879,0.879s0.398,0.879,0.879,0.879h7.5
						c0.48,0,0.879-0.398,0.879-0.879S47.363,20,46.883,20z"/>
				</g>
			</g>
			<g id="Layer_5" display="inline">
				<path fill="#FFFFFF" d="M34.883,8.164c-14.754,0-26.719,11.965-26.719,26.719s11.965,26.719,26.719,26.719
					s26.719-11.965,26.719-26.719S49.637,8.164,34.883,8.164z M29.445,22.203c3.984,0,7.219,3.234,7.219,7.219
					c0,3.985-3.234,7.219-7.219,7.219c-3.985,0-7.219-3.229-7.219-7.219C22.226,25.437,25.461,22.203,29.445,22.203z M41.105,47.082
					c0,2.309-1.893,4.207-4.207,4.207H21.98c-2.309,0-4.207-1.887-4.207-4.207v-8.895c0-2.313,1.887-4.208,4.207-4.208h0.352
					c1.465,2.391,4.102,3.984,7.113,3.984c3.011,0,5.648-1.594,7.114-3.984h0.354c2.312,0,4.207,1.887,4.207,4.208v8.895H41.105z
					 M49.344,29.129v5.988h-2.801v-5.988h-5.988v-2.801h5.988v-5.977h2.801v5.988h5.988v2.801h-5.988V29.129z"/>
			</g>
			<g id="Layer_6" display="inline">
				<path fill="#FFFFFF" d="M35,8.281C20.246,8.281,8.281,20.246,8.281,35S20.246,61.719,35,61.719S61.719,49.754,61.719,35
					S49.754,8.281,35,8.281z M29.563,22.32c3.984,0,7.219,3.234,7.219,7.219s-3.234,7.219-7.219,7.219s-7.219-3.234-7.219-7.219
					S25.578,22.32,29.563,22.32z M41.223,47.199c0,2.309-1.887,4.207-4.207,4.207H22.098c-2.309,0-4.207-1.887-4.207-4.207v-8.895
					c0-2.313,1.887-4.208,4.207-4.208h0.352c1.465,2.39,4.102,3.984,7.113,3.984s5.648-1.596,7.113-3.984h0.352
					c2.313,0,4.207,1.886,4.207,4.208v8.895H41.223z M40.742,29.258v-2.813h14.297v2.813H40.742z"/>
			</g>
			<g id="Layer_7" display="inline">
				<path fill="#FFFFFF" d="M35,8.281C20.246,8.281,8.281,20.246,8.281,35S20.246,61.719,35,61.719S61.719,49.754,61.719,35
					S49.754,8.281,35,8.281z M29.563,22.32c3.984,0,7.219,3.234,7.219,7.219s-3.234,7.219-7.219,7.219s-7.219-3.234-7.219-7.219
					S25.578,22.32,29.563,22.32z M41.223,47.199c0,2.309-1.887,4.207-4.207,4.207H22.098c-2.309,0-4.207-1.887-4.207-4.207v-8.895
					c0-2.313,1.887-4.208,4.207-4.208h0.352c1.465,2.39,4.102,3.984,7.113,3.984s5.648-1.596,7.113-3.984h0.352
					c2.313,0,4.207,1.886,4.207,4.208v8.895H41.223z M48.219,33.031l-1.992,1.992l-1.992-1.992l-4.805-4.805l1.992-1.992
					l4.805,4.805l8.121-8.121l1.992,1.992L48.219,33.031z"/>
			</g>
			<g id="Layer_8" display="inline">
				<g>
					<path fill="#FFFFFF" d="M35,8.281C20.246,8.281,8.281,20.246,8.281,35S20.246,61.719,35,61.719S61.719,49.754,61.719,35
						S49.754,8.281,35,8.281z M44.926,17.07c3.023,0,5.473,2.449,5.473,5.473s-2.443,5.473-5.473,5.473
						c-3.023,0-5.473-2.449-5.473-5.473S41.902,17.07,44.926,17.07z M40.461,36.605c0,3.021-2.449,5.473-5.473,5.473
						s-5.473-2.449-5.473-5.473c0-3.024,2.449-5.479,5.473-5.479S40.461,33.582,40.461,36.605z M25.074,17.07
						c3.023,0,5.473,2.449,5.473,5.473s-2.449,5.473-5.473,5.473c-3.024,0-5.473-2.449-5.473-5.473S22.051,17.07,25.074,17.07z
						 M16.238,35.914v-6.738c0-1.746,1.43-3.188,3.188-3.188h0.27c1.113,1.816,3.105,3.023,5.391,3.023s4.277-1.207,5.391-3.023
						h0.27c1.746,0,3.188,1.43,3.188,3.188v1.289c-2.953,0.504-5.203,3.07-5.203,6.141c0,0.896,0.188,1.734,0.527,2.496h-9.844
						C17.668,39.102,16.238,37.672,16.238,35.914z M43.836,49.742c0,1.746-1.43,3.188-3.188,3.188H29.34
						c-1.746,0-3.188-1.43-3.188-3.188v-6.738c0-1.746,1.43-3.188,3.188-3.188h0.27c1.113,1.813,3.105,3.021,5.391,3.021
						s4.276-1.207,5.392-3.021h0.271c1.746,0,3.188,1.43,3.188,3.188v6.738H43.836z M53.762,35.914c0,1.746-1.43,3.188-3.188,3.188
						h-9.82c0.34-0.762,0.527-1.604,0.527-2.496c0-3.082-2.25-5.637-5.203-6.141v-1.289c0-1.746,1.43-3.188,3.188-3.188h0.271
						c1.111,1.816,3.104,3.023,5.391,3.023s4.277-1.207,5.393-3.023h0.271c1.746,0,3.188,1.43,3.188,3.188v6.738H53.762z"/>
				</g>
			</g>
		</g>
	</g>
</g>
<circle fill="#FFFFFF" cx="35" cy="35" r="26.5"/>
<g>
	<path fill-rule="evenodd" clip-rule="evenodd" fill="#FFFFFF" d="M17.636,46.894c0-8.526,0-17.051,0-25.585
		c11.865,0,23.732,0,35.614,0c0,8.524,0,17.055,0,25.585C41.384,46.894,29.512,46.894,17.636,46.894z M22.363,38.457
		c-0.089-0.783-0.182-1.598-0.273-2.412c-0.073-0.65-0.155-1.3-0.216-1.951c-0.125-1.328,0.553-2.412,1.8-2.943
		c0.203-0.088,0.368-0.266,0.55-0.401c-0.188-0.227-0.373-0.457-0.569-0.676c-0.041-0.045-0.126-0.052-0.193-0.072
		c-0.386-0.115-0.771-0.232-1.159-0.344c-0.561-0.162-0.629-0.297-0.296-0.769c0.099-0.141,0.327-0.237,0.508-0.26
		c0.257-0.034,0.526,0.017,0.79,0.032c0.95,0.053,0.94,0.055,1.05,0.984c0.018,0.154,0.16,0.293,0.245,0.439
		c0.097-0.103,0.228-0.189,0.286-0.311c0.482-1.004,0.958-2.012,1.422-3.024c0.171-0.372,0.429-0.632,0.839-0.669
		c1.884-0.169,3.768-0.412,5.655-0.456c1.707-0.039,3.42,0.142,5.131,0.233c0.397,0.021,0.68-0.17,0.72-0.523
		c0.042-0.38-0.148-0.624-0.549-0.694c-0.124-0.021-0.248-0.041-0.372-0.052c-3.553-0.341-7.097-0.289-10.63,0.232
		c-0.889,0.131-1.551,0.57-1.916,1.422c-0.189,0.444-0.414,0.873-0.608,1.278c-0.736-0.048-1.416-0.101-2.096-0.134
		c-1.142-0.055-1.617,0.717-1.899,1.705c-0.207,0.724,0.276,1.364,1.177,1.703c0.021,0.007,0.032,0.042,0.066,0.089
		c-1.033,1.043-1.314,2.317-1.165,3.754c0.222,2.146,0.401,4.296,0.569,6.447c0.078,0.997,0.749,1.698,1.747,1.705
		c1.268,0.01,2.537,0.008,3.805,0c0.7-0.004,1.292-0.435,1.537-1.09c0.047-0.129,0.087-0.26,0.136-0.41c0.125,0,0.235,0,0.346,0
		c2.983-0.001,5.966,0.002,8.948-0.01c0.338-0.001,0.544,0.057,0.604,0.437c0.029,0.178,0.169,0.35,0.289,0.499
		c0.543,0.672,1.297,0.642,2.032,0.528c0.16-0.024,0.341-0.344,0.39-0.556c0.067-0.283-0.11-0.518-0.409-0.585
		c-0.201-0.044-0.414-0.036-0.622-0.043c-0.43-0.017-0.568-0.15-0.58-0.586c-0.009-0.32,0.01-0.643-0.016-0.961
		c-0.021-0.292-0.188-0.497-0.491-0.542c-0.306-0.046-0.55,0.05-0.671,0.362c-0.03,0.074-0.068,0.145-0.102,0.215
		c-3.255,0-6.485,0-9.704,0c-0.328-1.074-0.801-1.566-1.625-1.582C25.368,38.436,23.892,38.457,22.363,38.457z M50.263,33.123
		c-0.003-4.969-4.145-8.298-8.585-7.391c-4.539,0.927-7.515,6.403-4.28,10.776c0.609,0.823,1.374,1.533,2.088,2.275
		c1.129,1.172,2.336,2.274,3.15,3.716c0.247,0.436,0.764,0.369,1.092-0.062c0.58-0.762,1.16-1.529,1.802-2.241
		c0.969-1.075,2.026-2.071,2.98-3.159C49.606,35.789,50.23,34.319,50.263,33.123z M27.41,30.265
		c0.244-0.521,0.496-0.973,0.667-1.454c0.155-0.433,0.45-0.522,0.853-0.57c2.247-0.274,4.497-0.34,6.755-0.165
		c0.427,0.033,0.718-0.199,0.739-0.557c0.022-0.355-0.237-0.597-0.678-0.631c-2.622-0.198-5.232-0.089-7.834,0.28
		c-0.287,0.041-0.468,0.17-0.593,0.445c-0.402,0.887-0.832,1.762-1.246,2.644c-0.341,0.726-0.151,1.069,0.66,1.141
		c1.137,0.1,2.275,0.207,3.416,0.253c1.35,0.055,2.702,0.05,4.052,0.066c0.316,0.004,0.58-0.095,0.675-0.436
		c0.127-0.453-0.16-0.767-0.695-0.776c-1.573-0.028-3.146-0.05-4.719-0.095C28.795,30.39,28.132,30.317,27.41,30.265z
		 M32.802,38.033c1.044,0,2.088,0.005,3.131-0.003c0.53-0.004,0.862-0.376,0.737-0.813c-0.107-0.383-0.396-0.512-0.767-0.511
		c-1.029,0-2.06-0.001-3.089-0.001c-1.044,0-2.087-0.004-3.131,0.003c-0.505,0.004-0.779,0.255-0.771,0.677
		c0.008,0.403,0.276,0.643,0.758,0.646C30.715,38.037,31.758,38.033,32.802,38.033z M25.86,35.26c0.348,0,0.695,0.006,1.042-0.002
		c0.382-0.007,0.514-0.303,0.603-0.591c0.095-0.309-0.058-0.546-0.358-0.658c-1.104-0.416-2.207-0.833-3.321-1.218
		c-0.12-0.042-0.395,0.079-0.455,0.197c-0.262,0.521-0.237,0.843,0.126,1.239C24.148,34.938,24.799,35.537,25.86,35.26z"/>
	<path fill-rule="evenodd" clip-rule="evenodd" d="M22.363,38.457c1.529,0,3.004-0.021,4.479,0.008
		c0.824,0.016,1.297,0.508,1.625,1.582c3.218,0,6.449,0,9.704,0c0.033-0.07,0.071-0.141,0.102-0.215
		c0.121-0.313,0.365-0.408,0.671-0.362c0.303,0.045,0.47,0.25,0.491,0.542c0.025,0.318,0.007,0.641,0.016,0.961
		c0.012,0.436,0.15,0.569,0.58,0.586c0.208,0.007,0.421-0.001,0.622,0.043c0.299,0.067,0.477,0.302,0.409,0.585
		c-0.049,0.212-0.229,0.531-0.39,0.556c-0.735,0.113-1.489,0.144-2.032-0.528c-0.12-0.149-0.26-0.321-0.289-0.499
		c-0.06-0.38-0.266-0.438-0.604-0.437c-2.981,0.012-5.965,0.009-8.948,0.01c-0.11,0-0.221,0-0.346,0
		c-0.049,0.15-0.089,0.281-0.136,0.41c-0.245,0.655-0.837,1.086-1.537,1.09c-1.268,0.008-2.537,0.01-3.805,0
		c-0.998-0.007-1.668-0.708-1.747-1.705c-0.168-2.151-0.347-4.302-0.569-6.447c-0.149-1.437,0.132-2.711,1.165-3.754
		c-0.034-0.048-0.045-0.082-0.066-0.089c-0.901-0.339-1.384-0.979-1.177-1.703c0.282-0.988,0.757-1.76,1.899-1.705
		c0.68,0.033,1.359,0.086,2.096,0.134c0.194-0.405,0.419-0.834,0.608-1.278c0.364-0.852,1.026-1.291,1.916-1.422
		c3.533-0.521,7.077-0.573,10.63-0.232c0.124,0.012,0.248,0.031,0.372,0.052c0.4,0.071,0.591,0.314,0.549,0.694
		c-0.04,0.353-0.322,0.544-0.72,0.523c-1.711-0.091-3.424-0.272-5.131-0.233c-1.887,0.043-3.771,0.287-5.655,0.456
		c-0.41,0.037-0.668,0.297-0.839,0.669c-0.465,1.012-0.94,2.02-1.422,3.024c-0.058,0.121-0.189,0.208-0.286,0.311
		c-0.085-0.146-0.227-0.285-0.245-0.439c-0.109-0.93-0.1-0.931-1.05-0.984c-0.264-0.015-0.533-0.065-0.79-0.032
		c-0.181,0.023-0.409,0.12-0.508,0.26c-0.333,0.472-0.265,0.607,0.296,0.769c0.388,0.112,0.773,0.229,1.159,0.344
		c0.066,0.02,0.152,0.027,0.193,0.072c0.197,0.22,0.381,0.45,0.569,0.676c-0.182,0.136-0.347,0.313-0.55,0.401
		c-1.247,0.531-1.924,1.615-1.8,2.943c0.061,0.651,0.143,1.301,0.216,1.951C22.182,36.859,22.274,37.674,22.363,38.457z
		 M24.846,41.56c0-0.002,0-0.003,0-0.003c0.39,0,0.78-0.002,1.17,0c1.123,0.006,1.21,0.143,1.178-1.242
		c-0.011-0.51-0.142-0.628-0.665-0.63c-0.933-0.003-1.867,0.013-2.799-0.003c-1.328-0.023-1.251,0.018-1.243,1.313
		c0.002,0.371,0.179,0.567,0.563,0.565C23.648,41.557,24.247,41.56,24.846,41.56z"/>
	<path fill-rule="evenodd" clip-rule="evenodd" d="M50.263,33.123c-0.032,1.196-0.656,2.667-1.753,3.915
		c-0.954,1.088-2.012,2.084-2.98,3.159c-0.642,0.712-1.222,1.479-1.802,2.241c-0.328,0.431-0.845,0.497-1.092,0.062
		c-0.814-1.441-2.021-2.544-3.15-3.716c-0.714-0.742-1.479-1.452-2.088-2.275c-3.234-4.373-0.259-9.85,4.28-10.776
		C46.118,24.824,50.26,28.154,50.263,33.123z M43.204,40.907c0.645-0.709,1.298-1.449,1.976-2.169
		c0.688-0.729,1.405-1.432,2.098-2.158c0.239-0.251,0.462-0.524,0.657-0.811c0.68-0.998,1.172-2.071,1.105-3.308
		c-0.191-3.56-3.248-6.078-6.772-5.558c-2.193,0.323-3.718,1.578-4.565,3.602c-0.845,2.016-0.486,3.924,0.917,5.542
		C40.076,37.729,41.669,39.291,43.204,40.907z"/>
	<path fill-rule="evenodd" clip-rule="evenodd" d="M27.41,30.265c0.723,0.053,1.386,0.125,2.051,0.145
		c1.573,0.045,3.146,0.067,4.719,0.095c0.535,0.01,0.822,0.323,0.695,0.776c-0.096,0.341-0.359,0.44-0.675,0.436
		c-1.351-0.017-2.703-0.012-4.052-0.066c-1.14-0.046-2.278-0.153-3.416-0.253c-0.811-0.071-1.001-0.415-0.66-1.141
		c0.414-0.882,0.844-1.757,1.246-2.644c0.125-0.275,0.306-0.405,0.593-0.445c2.602-0.37,5.213-0.479,7.834-0.28
		c0.44,0.034,0.7,0.276,0.678,0.631c-0.021,0.357-0.313,0.589-0.739,0.557c-2.258-0.176-4.508-0.11-6.755,0.165
		c-0.402,0.048-0.698,0.138-0.853,0.57C27.906,29.292,27.654,29.743,27.41,30.265z"/>
	<path fill-rule="evenodd" clip-rule="evenodd" d="M32.802,38.033c-1.044,0-2.087,0.004-3.131-0.002
		c-0.481-0.004-0.75-0.243-0.758-0.646c-0.009-0.422,0.265-0.673,0.771-0.677c1.044-0.007,2.087-0.003,3.131-0.003
		c1.03,0,2.06,0.001,3.089,0.001c0.37-0.001,0.659,0.128,0.767,0.511c0.125,0.438-0.207,0.81-0.737,0.813
		C34.891,38.038,33.846,38.033,32.802,38.033z"/>
	<path fill-rule="evenodd" clip-rule="evenodd" d="M25.86,35.26c-1.062,0.277-1.712-0.322-2.362-1.033
		c-0.363-0.396-0.388-0.718-0.126-1.239c0.06-0.119,0.334-0.24,0.455-0.197c1.114,0.385,2.217,0.802,3.321,1.218
		c0.3,0.112,0.453,0.35,0.358,0.658c-0.088,0.288-0.221,0.584-0.603,0.591C26.555,35.266,26.208,35.26,25.86,35.26z"/>
	<path fill-rule="evenodd" clip-rule="evenodd" fill="#FFFFFF" d="M24.846,41.56c-0.599,0-1.198-0.003-1.797,0
		c-0.383,0.002-0.56-0.194-0.563-0.565c-0.009-1.295-0.085-1.336,1.243-1.313c0.933,0.016,1.866,0,2.799,0.003
		c0.523,0.002,0.654,0.12,0.665,0.63c0.033,1.385-0.055,1.248-1.178,1.242c-0.39-0.002-0.78,0-1.17,0
		C24.846,41.557,24.846,41.558,24.846,41.56z"/>
	<path fill-rule="evenodd" clip-rule="evenodd" fill="#FFFFFF" d="M43.204,40.907c-1.535-1.616-3.128-3.179-4.585-4.859
		c-1.403-1.618-1.762-3.526-0.917-5.542c0.848-2.024,2.372-3.279,4.565-3.602c3.524-0.52,6.581,1.998,6.772,5.558
		c0.066,1.237-0.426,2.31-1.105,3.308c-0.195,0.286-0.418,0.56-0.657,0.811c-0.692,0.727-1.409,1.429-2.098,2.158
		C44.502,39.458,43.849,40.198,43.204,40.907z M43.158,36.623c2.3,0.006,4.237-1.905,4.237-4.179
		c-0.002-2.33-1.918-4.241-4.261-4.248c-2.277-0.006-4.185,1.914-4.188,4.219C38.943,34.781,40.782,36.617,43.158,36.623z"/>
	<path fill-rule="evenodd" clip-rule="evenodd" d="M43.158,36.623c-2.376-0.006-4.215-1.842-4.211-4.208
		c0.003-2.305,1.91-4.226,4.188-4.219c2.343,0.007,4.259,1.918,4.261,4.248C47.396,34.718,45.458,36.629,43.158,36.623z
		 M46.146,32.425c-0.003-1.617-1.379-3.005-2.972-2.998c-1.64,0.007-3.013,1.379-3.01,3.007c0.003,1.647,1.361,2.979,3.027,2.968
		C44.765,35.394,46.149,33.997,46.146,32.425z"/>
	<path fill-rule="evenodd" clip-rule="evenodd" fill="#FFFFFF" d="M46.146,32.425c0.003,1.572-1.382,2.968-2.954,2.977
		c-1.666,0.012-3.024-1.321-3.027-2.968c-0.003-1.628,1.37-3,3.01-3.007C44.768,29.42,46.144,30.809,46.146,32.425z"/>
</g>
</svg>
